HIERARCHY
ROOT Junyuan_V1:Solving:Hips
{
	OFFSET 0.000000 0.000000 0.000000
	CHANNELS 6 Xposition Yposition Zposition Xrotation Yrotation Zrotation
	JOINT Junyuan_V1:Solving:Spine
	{
		OFFSET 0.000000 -8.943189 2.778120
		CHANNELS 6 Xposition Yposition Zposition Xrotation Yrotation Zrotation
		JOINT Junyuan_V1:Solving:Spine1
		{
			OFFSET 0.000000 -9.944814 1.753542
			CHANNELS 6 Xposition Yposition Zposition Xrotation Yrotation Zrotation
			JOINT Junyuan_V1:Solving:Spine2
			{
				OFFSET 0.000000 -10.059801 0.880121
				CHANNELS 6 Xposition Yposition Zposition Xrotation Yrotation Zrotation
				JOINT Junyuan_V1:Solving:Spine3
				{
					OFFSET 0.000000 -10.098228 0.000000
					CHANNELS 6 Xposition Yposition Zposition Xrotation Yrotation Zrotation
					JOINT Junyuan_V1:Solving:Neck
					{
						OFFSET 0.000000 -12.983437 -1.298342
						CHANNELS 6 Xposition Yposition Zposition Xrotation Yrotation Zrotation
						JOINT Junyuan_V1:Solving:Neck1
						{
							OFFSET 0.000000 -8.085114 -0.707354
							CHANNELS 6 Xposition Yposition Zposition Xrotation Yrotation Zrotation
							JOINT Junyuan_V1:Solving:Head
							{
								OFFSET 0.000000 -7.992695 -1.409326
								CHANNELS 6 Xposition Yposition Zposition Xrotation Yrotation Zrotation
								JOINT Junyuan_V1:Solving:HeadEnd
								{
									OFFSET 0.000000 -9.728081 0.000002
									CHANNELS 6 Xposition Yposition Zposition Xrotation Yrotation Zrotation
									End Site
									{
										OFFSET 0.000000 -9.728081 0.000002
									}
								}
							}
						}
					}
					JOINT Junyuan_V1:Solving:RightShoulder
					{
						OFFSET 0.000000 -9.273884 -6.154356
						CHANNELS 6 Xposition Yposition Zposition Xrotation Yrotation Zrotation
						JOINT Junyuan_V1:Solving:RightArm
						{
							OFFSET -19.110832 -0.000008 0.000000
							CHANNELS 6 Xposition Yposition Zposition Xrotation Yrotation Zrotation
							JOINT Junyuan_V1:Solving:RightForeArm
							{
								OFFSET -27.916382 -0.000008 0.000000
								CHANNELS 6 Xposition Yposition Zposition Xrotation Yrotation Zrotation
								JOINT Junyuan_V1:Solving:RightHand
								{
									OFFSET -21.757072 -0.000008 0.000000
									CHANNELS 6 Xposition Yposition Zposition Xrotation Yrotation Zrotation
									JOINT Junyuan_V1:Solving:RightHandThumb1
									{
										OFFSET -3.656471 2.766285 -2.718907
										CHANNELS 6 Xposition Yposition Zposition Xrotation Yrotation Zrotation
										End Site
										{
											OFFSET -5.307442 0.000000 -5.356520
										}
									}
									JOINT Junyuan_V1:Solving:RightHandMiddle1
									{
										OFFSET -9.750572 -0.000004 0.062504
										CHANNELS 6 Xposition Yposition Zposition Xrotation Yrotation Zrotation
										End Site
										{
											OFFSET -7.540642 -0.000004 0.000000
										}
									}
								}
							}
						}
					}
					JOINT Junyuan_V1:Solving:LeftShoulder
					{
						OFFSET 0.000000 -9.273884 -6.154356
						CHANNELS 6 Xposition Yposition Zposition Xrotation Yrotation Zrotation
						JOINT Junyuan_V1:Solving:LeftArm
						{
							OFFSET 19.110832 -0.000008 0.000000
							CHANNELS 6 Xposition Yposition Zposition Xrotation Yrotation Zrotation
							JOINT Junyuan_V1:Solving:LeftForeArm
							{
								OFFSET 27.916382 -0.000008 0.000000
								CHANNELS 6 Xposition Yposition Zposition Xrotation Yrotation Zrotation
								JOINT Junyuan_V1:Solving:LeftHand
								{
									OFFSET 21.757072 -0.000008 0.000000
									CHANNELS 6 Xposition Yposition Zposition Xrotation Yrotation Zrotation
									JOINT Junyuan_V1:Solving:LeftHandThumb1
									{
										OFFSET 3.656471 2.766285 -2.718907
										CHANNELS 6 Xposition Yposition Zposition Xrotation Yrotation Zrotation
										End Site
										{
											OFFSET 5.307442 0.000000 -5.356520
										}
									}
									JOINT Junyuan_V1:Solving:LeftHandMiddle1
									{
										OFFSET 9.750572 -0.000004 0.062504
										CHANNELS 6 Xposition Yposition Zposition Xrotation Yrotation Zrotation
										End Site
										{
											OFFSET 7.540642 -0.000004 0.000000
										}
									}
								}
							}
						}
					}
				}
			}
		}
	}
	JOINT Junyuan_V1:Solving:RightUpLeg
	{
		OFFSET -8.521003 0.000000 0.000000
		CHANNELS 6 Xposition Yposition Zposition Xrotation Yrotation Zrotation
		JOINT Junyuan_V1:Solving:RightLeg
		{
			OFFSET 0.000000 41.622898 -0.000006
			CHANNELS 6 Xposition Yposition Zposition Xrotation Yrotation Zrotation
			JOINT Junyuan_V1:Solving:RightFoot
			{
				OFFSET 0.000000 37.258389 -0.000006
				CHANNELS 6 Xposition Yposition Zposition Xrotation Yrotation Zrotation
				JOINT Junyuan_V1:Solving:RightForeFoot
				{
					OFFSET 0.000000 3.234154 -0.000000
					CHANNELS 6 Xposition Yposition Zposition Xrotation Yrotation Zrotation
					JOINT Junyuan_V1:Solving:RightToeBase
					{
						OFFSET 0.000000 0.000000 -12.665958
						CHANNELS 6 Xposition Yposition Zposition Xrotation Yrotation Zrotation
						JOINT Junyuan_V1:Solving:RightToeBaseEnd
						{
							OFFSET 0.000000 0.000000 -2.833065
							CHANNELS 6 Xposition Yposition Zposition Xrotation Yrotation Zrotation
							End Site
							{
								OFFSET 0.000000 -2.833061 0.000002
							}
						}
					}
				}
			}
		}
	}
	JOINT Junyuan_V1:Solving:LeftUpLeg
	{
		OFFSET 8.521003 0.000000 0.000000
		CHANNELS 6 Xposition Yposition Zposition Xrotation Yrotation Zrotation
		JOINT Junyuan_V1:Solving:LeftLeg
		{
			OFFSET 0.000000 41.622898 -0.000006
			CHANNELS 6 Xposition Yposition Zposition Xrotation Yrotation Zrotation
			JOINT Junyuan_V1:Solving:LeftFoot
			{
				OFFSET 0.000000 37.258389 -0.000006
				CHANNELS 6 Xposition Yposition Zposition Xrotation Yrotation Zrotation
				JOINT Junyuan_V1:Solving:LeftForeFoot
				{
					OFFSET 0.000000 3.234154 -0.000000
					CHANNELS 6 Xposition Yposition Zposition Xrotation Yrotation Zrotation
					JOINT Junyuan_V1:Solving:LeftToeBase
					{
						OFFSET 0.000000 0.000000 -12.665958
						CHANNELS 6 Xposition Yposition Zposition Xrotation Yrotation Zrotation
						JOINT Junyuan_V1:Solving:LeftToeBaseEnd
						{
							OFFSET 0.000000 0.000000 -4.326123
							CHANNELS 6 Xposition Yposition Zposition Xrotation Yrotation Zrotation
							End Site
							{
								OFFSET 0.000000 -4.326126 0.000000
							}
						}
					}
				}
			}
		}
	}
}
MOTION
Frames: 4
Frame Time: 0.041667
4.981265 39.998844 -84.573990 39.051651 202.440564 -14.558955 0.000005 -8.943190 2.778127 33.978651 -0.289263 0.136870 -0.000000 -9.944815 1.753550 10.860043 -0.073533 0.348850 0.000001 -10.059793 0.880151 8.162833 -0.850264 -2.132961 0.000002 -10.098229 -0.000006 -0.944871 -0.842045 -3.094720 -0.000005 -12.983442 -1.298351 11.661723 0.097670 7.411528 0.000002 -8.085114 -0.707374 -28.841488 -7.744164 -4.648808 -0.000001 -7.992674 -1.409334 -16.235961 -1.285552 0.571213 -0.000006 -9.728088 0.000009 -0.000007 -0.000001 -0.000003 -0.000009 -9.273880 -6.154366 -0.000003 17.384208 22.055144 -19.110828 -0.000021 0.000002 -9.052228 -41.238766 -90.033976 -27.916370 -0.000004 0.000015 250.757090 -56.229819 247.220992 -21.757059 -0.000003 -0.000006 10.390746 18.927532 -29.479486 -3.656460 2.766269 -2.718923 -0.000002 -0.000003 -0.000005 -9.750566 -0.000011 0.062500 0.000000 0.000002 -0.000002 0.000000 -9.273884 -6.154366 -0.000004 -8.590490 -18.058981 19.110823 -0.000019 0.000001 -17.334779 43.134967 93.804636 27.916389 -0.000001 -0.000003 -201.861105 62.395315 199.572254 21.757069 0.000005 0.000008 6.616604 -9.182075 36.014529 3.656461 2.766283 -2.718907 0.000003 0.000010 -0.000003 9.750558 0.000005 0.062504 0.000003 0.000006 0.000001 -8.521001 -0.000011 0.000020 -63.558926 12.836520 -2.816077 -0.000005 41.622902 -0.000002 12.268298 0.000002 0.000000 -0.000002 37.258389 -0.000009 11.561434 -6.020912 4.345304 -0.000003 3.234138 -0.000004 0.000000 0.000004 0.000001 0.000005 -0.000008 -12.665956 -0.692369 0.000000 -0.000000 -0.000007 -0.000008 -2.833064 0.000000 0.000006 0.000000 8.521008 -0.000000 0.000010 -70.035681 2.694243 -16.489168 -0.000000 41.622894 -0.000009 20.134870 0.000005 0.000000 0.000002 37.258400 -0.000005 10.660925 12.413368 13.921060 0.000001 3.234146 0.000000 -0.000002 -0.000000 -0.000000 0.000000 0.000002 -12.665962 1.415367 0.000003 -0.000001 -0.000001 -0.000008 -4.326123 -0.000001 -0.000002 -0.000000 
4.921924 40.217422 -84.524994 37.715540 202.211179 -15.075187 0.000001 -8.943195 2.778096 32.684265 -0.238543 0.196177 0.000001 -9.944817 1.753532 10.524847 -0.057124 0.313218 0.000003 -10.059805 0.880142 7.674288 -0.653347 -2.040671 -0.000001 -10.098231 -0.000007 -0.611309 -0.861024 -2.873914 -0.000002 -12.983434 -1.298348 11.553700 0.068098 7.260906 -0.000000 -8.085121 -0.707373 -28.523430 -7.907131 -4.724596 0.000002 -7.992702 -1.409316 -16.149513 -1.300486 0.563915 0.000005 -9.728096 -0.000012 0.000002 0.000000 0.000000 -0.000007 -9.273880 -6.154377 -0.000007 17.256345 21.976158 -19.110830 -0.000017 0.000010 -9.132787 -42.661734 -90.596695 -27.916372 -0.000004 -0.000010 240.344248 -64.582649 237.773256 -21.757076 -0.000018 0.000003 6.675151 17.346425 -21.431711 -3.656463 2.766279 -2.718901 -0.000004 -0.000000 -0.000009 -9.750569 -0.000004 0.062506 0.000003 0.000000 -0.000006 0.000002 -9.273884 -6.154377 -0.000002 -10.099686 -18.106821 19.110823 -0.000011 0.000012 -20.296993 46.905197 95.259248 27.916384 -0.000002 -0.000001 -200.739109 62.887792 198.625958 21.757067 -0.000016 0.000001 -1.705506 1.642838 46.084611 3.656472 2.766272 -2.718896 -0.000006 0.000000 0.000001 9.750587 -0.000004 0.062506 -0.000002 -0.000000 0.000000 -8.521002 -0.000005 -0.000032 -65.081328 12.699294 -2.911902 -0.000000 41.622925 -0.000005 12.482935 0.000001 0.000001 -0.000010 37.258396 -0.000002 11.725730 -5.925186 4.556478 -0.000002 3.234146 -0.000002 0.000000 -0.000010 0.000001 0.000001 -0.000006 -12.665960 -0.637794 0.000002 -0.000000 -0.000010 -0.000008 -2.833067 -0.000000 0.000002 0.000000 8.521007 -0.000012 -0.000027 -71.582971 2.679394 -16.611568 -0.000001 41.622910 -0.000010 20.447870 0.000005 0.000001 -0.000001 37.258408 -0.000003 10.794370 12.568558 13.736173 -0.000002 3.234146 -0.000001 -0.000001 -0.000005 0.000002 0.000002 -0.000018 -12.665961 1.282916 0.000002 0.000002 0.000000 -0.000008 -4.326124 -0.000000 -0.000004 0.000000 
4.921170 40.388237 -84.487427 36.885108 202.105694 -15.267380 -0.000002 -8.943192 2.778125 32.118562 -0.182040 0.092891 -0.000002 -9.944817 1.753560 10.000972 -0.029887 0.247188 0.000001 -10.059797 0.880127 7.068380 -0.379456 -1.940519 -0.000007 -10.098230 0.000001 -0.289305 -0.805224 -2.557469 0.000002 -12.983436 -1.298361 11.796804 0.069218 7.312344 0.000004 -8.085122 -0.707333 -28.484911 -8.061015 -4.913832 -0.000004 -7.992694 -1.409320 -16.264072 -1.313878 0.553394 -0.000005 -9.728096 0.000005 0.000003 0.000002 -0.000003 -0.000000 -9.273880 -6.154389 -0.000011 17.007598 21.898263 -19.110825 -0.000015 0.000025 -9.469436 -44.563217 -91.494448 -27.916382 0.000003 0.000013 211.359862 -74.552170 210.430998 -21.757069 -0.000013 -0.000002 5.103808 15.889105 -18.068021 -3.656445 2.766295 -2.718907 0.000000 0.000000 0.000005 -9.750554 0.000014 0.062500 0.000000 -0.000002 0.000012 0.000008 -9.273880 -6.154389 -0.000008 -10.514555 -18.073160 19.110819 -0.000006 0.000013 -19.930632 48.034654 94.896736 27.916378 0.000000 0.000007 -190.728224 63.639243 189.634752 21.757074 -0.000010 -0.000003 1.324225 -1.295861 45.627733 3.656474 2.766283 -2.718907 0.000003 -0.000002 0.000003 9.750580 -0.000025 0.062515 0.000005 0.000005 -0.000000 -8.521001 0.000001 -0.000011 -66.007126 12.676567 -3.103851 0.000001 41.622898 -0.000009 12.633426 -0.000005 0.000001 -0.000001 37.258373 -0.000014 11.841796 -5.816206 4.790387 -0.000005 3.234154 -0.000002 -0.000000 -0.000001 -0.000001 0.000003 0.000000 -12.665962 -0.465781 -0.000000 0.000000 -0.000001 -0.000008 -2.833069 -0.000001 -0.000002 0.000000 8.521005 -0.000001 -0.000008 -72.596687 2.725848 -16.813781 0.000002 41.622913 -0.000011 20.695396 0.000002 0.000001 0.000000 37.258396 -0.000007 10.848395 12.762654 13.665656 0.000001 3.234146 -0.000000 -0.000006 -0.000002 0.000000 0.000000 -0.000004 -12.665962 1.214148 0.000003 0.000000 0.000001 -0.000008 -4.326123 -0.000002 -0.000004 0.000000 
4.950682 40.442352 -84.471992 36.732768 202.093276 -15.232077 0.000000 -8.943196 2.778121 31.986995 -0.166038 -0.041700 -0.000001 -9.944808 1.753572 9.709434 -0.005656 0.180627 -0.000000 -10.059802 0.880116 6.719780 -0.022766 -1.884198 0.000006 -10.098226 0.000004 -0.110704 -0.733943 -2.339095 -0.000007 -12.983440 -1.298357 12.114074 0.219659 7.433322 -0.000001 -8.085111 -0.707381 -28.698734 -8.372275 -5.076289 -0.000004 -7.992682 -1.409350 -16.513495 -1.386199 0.616922 0.000006 -9.728088 -0.000011 0.000001 0.000001 0.000002 -0.000008 -9.273876 -6.154357 -0.000007 16.677314 21.879690 -19.110817 -0.000016 -0.000005 -9.248252 -41.957955 -91.682476 -27.916376 0.000004 0.000004 244.279585 -63.988047 241.808586 -21.757076 -0.000005 0.000001 1.720247 8.836749 -11.061989 -3.656451 2.766277 -2.718909 -0.000002 0.000007 -0.000003 -9.750549 0.000009 0.062508 0.000001 -0.000000 -0.000000 0.000004 -9.273876 -6.154356 -0.000006 -10.606718 -18.033878 19.110823 -0.000014 0.000001 -19.058856 47.959123 94.272067 27.916378 0.000006 0.000005 -182.589234 63.323456 182.313964 21.757078 -0.000007 -0.000002 4.486005 -4.428355 45.457692 3.656459 2.766283 -2.718897 -0.000000 -0.000003 0.000003 9.750579 0.000014 0.062503 -0.000003 0.000003 -0.000001 -8.521005 -0.000003 -0.000008 -66.190598 12.710468 -3.196852 -0.000012 41.622898 -0.000002 12.709076 -0.000007 0.000002 -0.000002 37.258404 -0.000006 11.863882 -5.747855 4.800522 0.000007 3.234146 -0.000003 -0.000001 -0.000002 -0.000001 -0.000001 0.000008 -12.665962 -0.379704 0.000004 0.000002 0.000003 -0.000007 -2.833068 -0.000000 0.000000 -0.000001 8.521001 0.000003 -0.000007 -72.825786 2.750656 -16.914911 0.000005 41.622906 -0.000006 20.776853 -0.000001 0.000003 0.000002 37.258411 -0.000009 10.855106 12.875996 13.649211 -0.000000 3.234146 -0.000001 -0.000002 0.000002 0.000000 0.000001 -0.000004 -12.665964 1.156224 0.000000 0.000001 0.000000 -0.000008 -4.326126 -0.000000 0.000001 0.000000 
